<svg xmlns="http://www.w3.org/2000/svg" width="33" height="50" viewBox="0 0 33 50">
    <path fill="#004FA5" fill-rule="evenodd" d="M18.611 3.333C19.455 3.973 20 4.98 20 6.114c0 1.13-.542 2.135-1.382 2.775l-.002-.004-.005.001-.005-.001-.001.004c-.84-.64-1.383-1.645-1.383-2.775 0-1.134.545-2.141 1.389-2.78m10.833 28.095c0 6.268-4.989 11.349-11.144 11.349-1.567 0-3.058-.33-4.411-.925l7.052-7.182c.197-.166.38-.352.543-.553l.003-.002c.593-.73.95-1.666.95-2.687 0-1.837-1.156-3.395-2.765-3.971l5.14-5.236c2.806 2.061 4.632 5.416 4.632 9.207m-12.777-.04c0-.49.182-.936.481-1.278l.007.007.256-.257c.33-.26.747-.417 1.2-.417 1.074 0 1.945.871 1.945 1.945s-.87 1.944-1.945 1.944c-1.074 0-1.944-.87-1.944-1.944m-.579 16.04c-1.022-.129-2.014-.338-2.971-.62-6.256-2.212-10.74-8.19-10.74-15.218 0-7.337 4.885-13.53 11.573-15.489l-.016-.012h.05c-.04 0 .092-.589.109-.638.076-.225.186-.437.314-.635.287-.441.664-.82 1.063-1.158.641-.543 1.358-.994 2.096-1.392.292-.157.576-.32.854-.49.024.016.049.033.074.048l-.063-.054.04-.024c.294.181.596.353.907.52.737.398 1.454.849 2.095 1.392.4.338.777.717 1.063 1.158.128.198.238.41.314.635.017.05.15.638.11.638 1.374.388 2.4.873 3.608 1.555L24.8 19.418l-.04.04c-.566-.297-1.16-.56-1.78-.781-5.41-1.931-11.227-.267-14.852 3.755 4.023-2.72 9.236-3.555 14.157-1.798.318.113.63.236.936.368l-.203.203-7.051 7.069c-1.015.77-1.673 1.987-1.673 3.362 0 1.85 1.189 3.418 2.841 3.988l-6.006 6.02-.952.955c.638.485 1.32.917 2.039 1.286l.014-.017c1.88.972 4.013 1.52 6.274 1.52 7.577 0 13.72-6.157 13.72-13.752 0-4.455-2.116-8.413-5.392-10.927l1.72-1.686.111-.106 1.623-1.557c-1.522-1.24-3.201-2.28-5.062-2.992-.52-1.31-1.647-2.536-3.372-3.66-.426-.28-.85-.524-1.248-.737l.042-.05c.07-.079.135-.156.19-.228.728-.948 1.162-2.134 1.162-3.423 0-1.289-.434-2.475-1.162-3.423-.608-.792-2.11-1.974-2.363-2.847v.002L18.47 0c-.253.873-1.755 2.055-2.363 2.847-.728.948-1.162 2.134-1.162 3.423 0 1.289.434 2.475 1.162 3.423.056.072.12.149.19.227l.042.051c-.398.213-.822.457-1.248.736-1.716 1.12-2.84 2.338-3.364 3.64C4.862 17.048 0 23.75 0 31.591 0 39.767 5.29 46.7 12.623 49.153c.054.018.107.037.162.054.312.101.625.197.944.282v-.01c.668.172 1.353.306 2.055.393 6.759.846 13.067-2.575 16.236-8.163-3.962 4.182-9.784 6.489-15.932 5.72"/>
</svg>
